<?xml version="1.0" encoding="utf-8"?><!DOCTYPE svg PUBLIC "-//W3C//DTD SVG 1.1//EN" "http://www.w3.org/Graphics/SVG/1.1/DTD/svg11.dtd"><svg version="1.1" baseProfile="full" xmlns="http://www.w3.org/2000/svg" xmlns:xlink="http://www.w3.org/1999/xlink" xmlns:ev="http://www.w3.org/2001/xml-events" height="25.9px" width="25.9px" ><path fill="rgb( 255, 255, 255 )" d="M12,0 C5.37299999999999,0 0,5.37300000000005 0,12 C0,16.913 2.95499999999998,21.135 7.18400000000003,22.991 C7.14999999999998,22.153 7.17599999999999,21.147 7.392,20.235 C7.62299999999999,19.261 8.935,13.696 8.935,13.696 C8.935,13.696 8.553,12.932 8.553,11.798 C8.553,10.02 9.58300000000003,8.69200000000001 10.866,8.69200000000001 C11.959,8.69200000000001 12.486,9.51300000000003 12.486,10.494 C12.486,11.59 11.786,13.232 11.426,14.751 C11.126,16.025 12.065,17.063 13.32,17.063 C15.593,17.063 17.126,14.143 17.126,10.683 C17.126,8.05399999999997 15.353,6.08500000000004 12.132,6.08500000000004 C8.49200000000002,6.08500000000004 6.22399999999999,8.79899999999998 6.22399999999999,11.832 C6.22399999999999,12.876 6.53199999999998,13.614 7.01499999999999,14.186 C7.23599999999999,14.446 7.267,14.552 7.18799999999999,14.853 C7.12900000000002,15.075 6.99799999999999,15.606 6.94299999999998,15.817 C6.863,16.121 6.61700000000002,16.229 6.34100000000001,16.116 C4.666,15.434 3.88499999999999,13.597 3.88499999999999,11.533 C3.88499999999999,8.12400000000002 6.75900000000001,4.03700000000003 12.461,4.03700000000003 C17.042,4.03700000000003 20.058,7.35199999999998 20.058,10.91 C20.058,15.6180000000001 17.441,19.134 13.584,19.134 C12.287,19.134 11.068,18.434 10.651,17.64 C10.651,17.64 9.95499999999998,20.404 9.80700000000002,20.939 C9.55200000000002,21.8630000000001 9.05399999999997,22.787 8.60000000000002,23.508 C9.678,23.827 10.819,24 12,24 C18.627,24 24,18.627 24,12 C24,5.37300000000005 18.627,0 12,0 Z "/></svg>